<svg width="32" height="32" viewBox="0 0 32 32" fill="none" xmlns="http://www.w3.org/2000/svg">
<mask id="mask0_5001_30074" style="mask-type:luminance" maskUnits="userSpaceOnUse" x="0" y="4" width="32" height="24">
<rect y="4" width="32" height="24" rx="12" fill="white"/>
</mask>
<g mask="url(#mask0_5001_30074)">
<path fill-rule="evenodd" clip-rule="evenodd" d="M0 4V28H32V4H0Z" fill="#2E42A5"/>
<mask id="mask1_5001_30074" style="mask-type:luminance" maskUnits="userSpaceOnUse" x="0" y="4" width="32" height="24">
<path fill-rule="evenodd" clip-rule="evenodd" d="M0 4V28H32V4H0Z" fill="white"/>
</mask>
<g mask="url(#mask1_5001_30074)">
<mask id="mask2_5001_30074" style="mask-type:luminance" maskUnits="userSpaceOnUse" x="0" y="4" width="32" height="24">
<rect y="4" width="32" height="24" fill="white"/>
</mask>
<g mask="url(#mask2_5001_30074)">
<path d="M-3.56314 26.2854L3.47855 29.2635L32.1598 7.23787L35.8741 2.81239L28.344 1.81703L16.6457 11.3085L7.22965 17.7035L-3.56314 26.2854Z" fill="white"/>
<path d="M-2.59912 28.3719L0.988295 30.1002L34.5403 2.40122H29.5032L-2.59912 28.3719Z" fill="#F50100"/>
<path d="M35.5631 26.2854L28.5215 29.2635L-0.159786 7.23787L-3.87411 2.81239L3.65596 1.81703L15.3543 11.3085L24.7704 17.7035L35.5631 26.2854Z" fill="white"/>
<path d="M35.3229 27.7829L31.7355 29.5111L17.4487 17.6518L13.2129 16.3267L-4.23151 2.82754H0.805637L18.2403 16.0063L22.8713 17.5952L35.3229 27.7829Z" fill="#F50100"/>
<mask id="path-9-inside-1_5001_30074" fill="white">
<path fill-rule="evenodd" clip-rule="evenodd" d="M19.7778 2H12.2222V12H-1.97247V20H12.2222V30H19.7778V20H34.0275V12H19.7778V2Z"/>
</mask>
<path fill-rule="evenodd" clip-rule="evenodd" d="M19.7778 2H12.2222V12H-1.97247V20H12.2222V30H19.7778V20H34.0275V12H19.7778V2Z" fill="#F50100"/>
<path d="M12.2222 2V0H10.2222V2H12.2222ZM19.7778 2H21.7778V0H19.7778V2ZM12.2222 12V14H14.2222V12H12.2222ZM-1.97247 12V10H-3.97247V12H-1.97247ZM-1.97247 20H-3.97247V22H-1.97247V20ZM12.2222 20H14.2222V18H12.2222V20ZM12.2222 30H10.2222V32H12.2222V30ZM19.7778 30V32H21.7778V30H19.7778ZM19.7778 20V18H17.7778V20H19.7778ZM34.0275 20V22H36.0275V20H34.0275ZM34.0275 12H36.0275V10H34.0275V12ZM19.7778 12H17.7778V14H19.7778V12ZM12.2222 4H19.7778V0H12.2222V4ZM14.2222 12V2H10.2222V12H14.2222ZM-1.97247 14H12.2222V10H-1.97247V14ZM0.0275269 20V12H-3.97247V20H0.0275269ZM12.2222 18H-1.97247V22H12.2222V18ZM14.2222 30V20H10.2222V30H14.2222ZM19.7778 28H12.2222V32H19.7778V28ZM17.7778 20V30H21.7778V20H17.7778ZM34.0275 18H19.7778V22H34.0275V18ZM32.0275 12V20H36.0275V12H32.0275ZM19.7778 14H34.0275V10H19.7778V14ZM17.7778 2V12H21.7778V2H17.7778Z" fill="white" mask="url(#path-9-inside-1_5001_30074)"/>
</g>
</g>
</g>
<rect opacity="0.64" x="0.5" y="4.5" width="31" height="23" rx="11.5" stroke="#EDF0F4"/>
</svg>
